<?xml version="1.0" encoding="UTF-8"?>
<!-- Generator: visioncortex VTracer 0.6.3 -->
<svg version="1.1" xmlns="http://www.w3.org/2000/svg" width="225" height="225">
<path d="M0 0 C7.88 -0.33 15.75 -0.41 23.64 -0.39 C24.94 -0.4 26.25 -0.4 27.59 -0.4 C63.33 -0.34 108.24 2.33 136.14 27.73 C162.49 56.68 164.33 103.3 164.26 140.23 C164.27 141.54 164.27 142.84 164.27 144.19 C164.21 179.92 161.54 224.83 136.14 252.73 C107.19 279.08 60.57 280.92 23.64 280.86 C21.68 280.86 21.68 280.86 19.68 280.86 C-16.05 280.8 -60.96 278.13 -88.86 252.73 C-115.21 223.78 -117.05 177.16 -116.99 140.23 C-116.99 138.93 -116.99 137.62 -116.99 136.28 C-116.85 52.51 -87.34 4.79 0 0 Z M-51.68 72.21 C-63.33 85.67 -70.79 100.37 -74.86 117.73 C-75.13 118.86 -75.13 118.86 -75.4 120 C-80.81 144.63 -74.93 170.46 -61.86 191.73 C-48.19 213.02 -27.27 228.05 -2.86 234.73 C-2.24 234.91 -1.62 235.08 -0.98 235.27 C24.36 241.77 51.22 235.46 73.45 222.86 C91.86 211.22 104.3 195.34 113.14 175.73 C113.54 174.84 113.94 173.95 114.35 173.04 C123.98 149.28 121.93 122.17 112.12 98.93 C101.48 75.3 81.96 56.5 57.8 47.14 C19.04 32.67 -22.95 42.17 -51.68 72.21 Z " fill="#FEFEFE" transform="translate(88.86051177978516,-27.731037139892578)"/>
<path d="M0 0 C6.21 4.76 13.44 10.89 17 18 C19.17 17.68 19.17 17.68 21.56 16.81 C22.39 16.55 23.22 16.29 24.07 16.02 C24.7 15.68 25.34 15.35 26 15 C26.32 11.72 26.32 11.72 23.44 8.94 C22.63 7.97 21.83 7 21 6 C21.33 5.34 21.66 4.68 22 4 C24.55 5.16 24.55 5.16 27.75 7.06 C28.8 7.67 29.84 8.28 30.92 8.91 C34.16 11.11 36.67 12.86 39 16 C37.02 17.08 37.02 17.08 33.38 17.81 C12.65 22.72 -7.15 35.36 -23.11 49.17 C-26.87 51.55 -29.59 51.58 -34 52 C-37.36 54.54 -38.77 56.43 -40.33 60.35 C-41.88 64.09 -44.03 66.47 -46.96 69.29 C-47.44 69.75 -47.91 70.21 -48.4 70.69 C-49.91 72.16 -51.42 73.61 -52.94 75.06 C-54.45 76.52 -55.96 77.98 -57.46 79.44 C-58.83 80.77 -60.2 82.09 -61.57 83.41 C-64.14 86.14 -66.23 88.69 -68 92 C-65.39 95.12 -65.39 95.12 -62 97 C-58.41 96.56 -57.02 95.26 -54.78 92.5 C-50.87 87.83 -46.75 83.42 -42.5 79.06 C-41.78 78.3 -41.06 77.53 -40.32 76.74 C-36.02 72.36 -33.42 70.14 -27 70 C-24.6 69.01 -24.6 69.01 -23 67 C-22.8 65.94 -22.61 64.88 -22.41 63.78 C-21.01 58.64 -17.05 56.47 -12.81 53.62 C-11.6 52.78 -11.6 52.78 -10.36 51.92 C25.96 26.99 25.96 26.99 46.31 25.31 C47.53 25.54 48.75 25.77 50 26 C51.5 31.3 49.12 35.79 46.97 40.67 C45.12 45.11 44.93 47.91 45.81 52.69 C46.07 54.15 46.07 54.15 46.33 55.64 C46.55 56.42 46.77 57.2 47 58 C47.66 58.33 48.32 58.66 49 59 C50.21 57.24 50.21 57.24 51.28 54.84 C51.71 53.96 52.14 53.09 52.58 52.19 C53.49 50.31 54.39 48.42 55.28 46.54 C55.71 45.67 56.14 44.8 56.59 43.9 C57.18 42.67 57.18 42.67 57.77 41.42 C58.38 40.72 58.38 40.72 59 40 C66.09 45.05 69.14 58.58 70.68 66.61 C71.75 74.56 72.4 84.06 71 92 C68.59 89.59 68.79 88.96 68.69 85.69 C68.35 82.05 68.08 81.1 65.75 78.06 C63.2 75.94 63.2 75.94 60.59 75.12 C57.61 73.83 56.03 72.3 53.81 69.94 C51.2 67.08 51.2 67.08 48 65 C47.79 67.69 47.72 70.25 47.75 72.94 C47.74 73.71 47.73 74.47 47.73 75.26 C47.73 77.18 47.86 79.09 48 81 C48.66 81 49.32 81 50 81 C50.27 82.57 50.46 84.16 50.62 85.75 C51.02 88.53 51.02 88.53 52 91 C53.74 92.29 53.74 92.29 55.88 93 C58.6 94.06 59.76 94.65 61.41 97.1 C64.44 104.12 65.33 110.93 62.94 118.25 C56.93 126.78 48.87 129.71 38.82 131.6 C33.84 132.12 28.93 132.15 23.94 132.12 C22.97 132.13 22 132.13 21.01 132.14 C11.03 132.12 11.03 132.12 7 131 C6.34 130.01 5.68 129.02 5 128 C1.73 126.91 -0.09 127.12 -3.5 127.38 C-18.45 127.47 -33.14 118.96 -46 112 C-47.59 111.15 -47.59 111.15 -49.2 110.29 C-67.39 100.15 -86.36 84.91 -94.17 65.02 C-95.82 59.02 -96.66 52.2 -93.71 46.52 C-89.06 40.87 -83.44 37.57 -76.25 36.38 C-72.36 34.73 -71.7 33.5 -69.81 29.81 C-68.67 27.22 -68.67 27.22 -69 25 C-72.3 24.77 -75.28 25.34 -78.54 25.86 C-79.76 25.93 -79.76 25.93 -81 26 C-79.31 22.9 -77.63 21.33 -75 19 C-74.15 18.24 -73.3 17.48 -72.42 16.7 C-67.14 12.2 -61.56 7.51 -55 5 C-54.34 5.33 -53.68 5.66 -53 6 C-54.31 8.38 -54.31 8.38 -56.44 11.56 C-62.49 20.95 -66.85 31.02 -70.12 41.69 C-71.58 46.4 -73.51 48.51 -77 52 C-77.84 56.26 -77.44 59.33 -75 63 C-74.84 65.42 -74.84 65.42 -74.95 68.25 C-74.97 69.27 -74.99 70.29 -75.02 71.34 C-75.09 73.49 -75.17 75.64 -75.25 77.79 C-75.28 78.81 -75.3 79.83 -75.32 80.88 C-75.37 82.28 -75.37 82.28 -75.42 83.71 C-75.24 86.15 -75.24 86.15 -73.15 87.45 C-72.44 87.63 -71.73 87.81 -71 88 C-68.26 85.96 -67.35 85.05 -66 82 C-65.54 78.42 -65.38 74.94 -65.34 71.34 C-64.97 67.72 -64.08 65.93 -62 63 C-59.67 59.33 -59.77 56.3 -60 52 C-60.3 51.08 -60.3 51.08 -60.6 50.14 C-62.67 39.02 -51.14 21.8 -45.12 13 C-34.13 -1.29 -16.89 -9.95 0 0 Z M-49.47 25.68 C-50.62 27.81 -51.47 29.64 -52 32 C-51.67 32.99 -51.34 33.98 -51 35 C-48.35 35.49 -45.86 35.79 -43.19 36 C-36.76 36.61 -30.74 37.62 -24.52 39.41 C-20.39 40.37 -18.04 40.54 -14.22 38.54 C-13.32 37.91 -12.42 37.28 -11.5 36.62 C-10.58 36 -9.66 35.37 -8.72 34.73 C-8.15 34.16 -7.58 33.59 -7 33 C-15.89 27.07 -28.57 25.08 -39 24 C-39.88 23.87 -40.76 23.74 -41.66 23.61 C-44.89 23.3 -47.24 23.13 -49.47 25.68 Z M26 35 C26.37 38.32 26.99 40.85 28 44 C34.5 67.53 36.22 94.26 28.49 117.77 C26.63 123.28 26.63 123.28 26 129 C29.19 130.44 31.51 130.01 34.94 129.56 C38.33 128.21 38.33 128.21 39.77 124.45 C40.21 122.98 40.62 121.49 41 120 C41.3 118.93 41.3 118.93 41.6 117.85 C48.12 92.7 46.76 64.65 39.62 39.75 C39.44 39.08 39.26 38.4 39.07 37.71 C38.46 35.64 38.46 35.64 37 33 C32.63 31.26 29.62 32 26 35 Z M7 44.81 C6.15 45.33 5.31 45.86 4.44 46.39 C3.96 46.92 3.49 47.45 3 48 C5.5 50.2 8.28 51.81 11.19 53.41 C11.97 53.84 12.75 54.28 13.55 54.72 C14.77 55.38 14.77 55.38 16 56.06 C16.81 56.51 17.61 56.96 18.45 57.42 C20.63 58.62 22.81 59.82 25 61 C25.75 61.42 26.49 61.85 27.26 62.29 C28.12 62.64 28.12 62.64 29 63 C29.1 60.52 29.1 60.52 28.38 57.38 C28.18 56.29 27.98 55.2 27.77 54.09 C26.52 49.07 26.52 49.07 22.98 45.52 C21.81 44.89 21.81 44.89 20.62 44.25 C19.85 43.82 19.08 43.39 18.29 42.95 C13.66 41.03 10.95 42.28 7 44.81 Z M26.66 69.2 C26.16 69.76 25.65 70.32 25.13 70.89 C24.28 71.83 24.28 71.83 23.41 72.77 C22.8 73.45 22.19 74.12 21.56 74.81 C20.29 76.2 19.01 77.58 17.73 78.96 C17.1 79.65 16.47 80.34 15.81 81.05 C7.01 90.53 -2.45 98.82 -12.77 106.6 C-13.6 107.23 -14.43 107.87 -15.28 108.52 C-16.96 109.79 -18.64 111.05 -20.33 112.3 C-21.1 112.88 -21.86 113.46 -22.64 114.06 C-23.69 114.84 -23.69 114.84 -24.75 115.63 C-25.16 116.08 -25.57 116.53 -26 117 C-23.06 119.94 -20.19 121 -16.18 122.02 C-10.07 121.99 -6.04 117.51 -1.74 113.58 C0.01 111.99 1.81 110.47 3.63 108.96 C6.83 106.29 9.94 103.54 13.03 100.75 C14.38 99.56 15.74 98.38 17.13 97.21 C26.41 89.89 26.41 89.89 31.01 79.49 C31.21 75.52 30.94 71.87 30 68 C27.95 67.78 27.95 67.78 26.66 69.2 Z " fill="#FDFAFA" transform="translate(126,28)"/>
<path d="M0 0 C6.67 0.48 12.57 1.81 18.88 4 C20.24 4.47 20.24 4.47 21.63 4.95 C32.77 8.88 42.51 14.16 51.5 21.88 C52.32 22.57 53.15 23.26 53.99 23.97 C72.34 39.84 84.81 62.66 87.5 86.88 C89.24 110.94 84.14 135.28 69.5 154.88 C68.86 155.74 68.22 156.59 67.57 157.48 C51.41 178.36 29.24 191.42 3.19 195.69 C-7.07 196.21 -7.07 196.21 -10.5 194.88 C-11.73 192.2 -11.55 189.77 -11.5 186.88 C-11.83 186.22 -12.16 185.56 -12.5 184.88 C-10.51 184.42 -10.51 184.42 -7.62 184.07 C1.01 182.65 8.59 178.39 14.5 171.88 C15.55 170.09 16.59 168.3 17.63 166.5 C19.89 163.04 20.82 162.04 24.9 161.06 C31.54 160.84 31.54 160.84 34.5 161.88 C33.8 165.91 31.12 168.87 28.69 172.07 C27.1 174.19 27.1 174.19 26.5 175.88 C35.71 173.45 45.04 164.78 51.32 157.98 C51.71 157.28 52.1 156.59 52.5 155.88 C50.61 156.36 48.71 156.84 46.83 157.35 C43.35 158.14 39.93 158.09 36.39 158 C35.65 158 34.91 157.99 34.16 157.98 C31.83 157.96 29.51 157.92 27.19 157.88 C24.11 157.83 21.03 157.79 17.95 157.75 C17.25 157.74 16.54 157.72 15.82 157.7 C12.13 157.67 10.67 157.77 7.5 159.88 C2.77 160.34 0.59 160.53 -3.5 158.07 C-5.5 155.88 -5.5 155.88 -5.5 152.88 C-7.49 152.47 -9.49 152.16 -11.5 151.88 C-14.48 151.02 -17.39 149.98 -20.31 148.94 C-21.09 148.68 -21.86 148.41 -22.66 148.14 C-28.38 146.12 -28.38 146.12 -29.5 143.88 C-29.84 140.04 -29.98 136.49 -28.5 132.88 C-24.78 132.59 -21.53 134.62 -18.25 136.19 C-10.41 139.55 -4.64 141.83 3.94 140.87 C7.24 140.88 8.9 141.9 11.5 143.88 C11.5 144.54 11.5 145.2 11.5 145.88 C15.84 146.39 20.26 146.21 24.63 146.19 C25.91 146.19 27.2 146.18 28.52 146.18 C47.1 145.97 47.1 145.97 63.06 137.39 C67.21 132.66 67.86 128.73 67.77 122.65 C67.31 117.97 66.08 113.83 63.5 109.88 C61.19 108.32 59.2 107.73 56.5 106.88 C54.41 103.74 54.3 103.21 54.5 99.69 C54.5 98.43 54.5 97.18 54.5 95.88 C53.84 95.88 53.18 95.88 52.5 95.88 C52.24 93.12 52.13 90.51 52.13 87.75 C52.09 86.58 52.09 86.58 52.05 85.39 C52.04 83.18 52.04 83.18 52.5 79.88 C55.75 80.4 57.69 82.96 59.81 85.32 C62.17 87.77 64.06 89.35 67.25 90.57 C70.76 91.98 71.9 92.5 73.5 95.88 C73.72 97.61 73.9 99.35 74.05 101.09 C74.2 102.34 74.35 103.59 74.5 104.88 C75.44 92.29 74.72 80.81 70.5 68.88 C70.08 67.4 69.67 65.92 69.25 64.44 C67.89 59.47 67.89 59.47 64.5 55.88 C60.29 60.15 58.03 66.6 55.66 72.02 C55.28 72.63 54.9 73.25 54.5 73.88 C53.51 73.88 52.52 73.88 51.5 73.88 C48.5 70.88 48.68 63.89 48.5 59.88 C49.19 57.62 50.13 55.95 51.36 53.94 C53.53 50.02 55.59 45.39 54.5 40.88 C50.05 39.95 45.75 41.57 41.5 42.88 C40.25 43.26 38.99 43.64 37.7 44.04 C19.4 50.13 2.47 61.02 -12.35 73.23 C-14.5 74.88 -14.5 74.88 -16.5 74.88 C-16.6 75.95 -16.71 77.02 -16.81 78.13 C-17.5 81.88 -17.5 81.88 -19.62 84.25 C-22.5 85.88 -22.5 85.88 -25.84 86.18 C-30.29 87.03 -31.76 88.43 -34.89 91.65 C-35.6 92.36 -35.6 92.36 -36.32 93.1 C-37.81 94.61 -39.28 96.15 -40.75 97.69 C-41.75 98.71 -42.75 99.74 -43.76 100.76 C-48.73 105.75 -48.73 105.75 -53.19 111.2 C-53.62 111.75 -54.05 112.31 -54.5 112.88 C-57.4 112.98 -59.72 111.33 -62.12 109.82 C-62.91 108.85 -63.69 107.88 -64.5 106.88 C-60.99 98.58 -51.32 91.7 -44.93 85.66 C-39.72 80.59 -36.49 76.89 -34.5 69.88 C-31.54 66.58 -30.14 65.93 -25.69 65.55 C-21.29 65.06 -19.01 63.41 -15.62 60.5 C-0.9 48.43 21.86 32.94 41.27 30.54 C41.68 30.32 42.08 30.1 42.5 29.88 C40.33 28.16 38.23 26.75 35.88 25.32 C35.21 24.89 34.54 24.47 33.85 24.03 C30.43 21.69 30.43 21.69 26.5 20.88 C28.08 22.95 29.79 24.88 31.51 26.84 C32 27.85 32 27.85 32.5 28.88 C29.39 32.07 25.92 33.58 21.5 33.88 C18.67 31.25 16.69 28.05 14.5 24.88 C9.06 18.29 2.57 14.57 -5.5 11.88 C-5.5 11.22 -5.5 10.56 -5.5 9.88 C-6.32 10.02 -7.15 10.17 -8 10.32 C-8.82 10.17 -9.65 10.03 -10.5 9.88 C-11.48 6.73 -11.51 4.02 -10.5 0.88 C-6.7 -0.41 -3.95 -0.19 0 0 Z " fill="#D91B23" transform="translate(121.499267578125,13.12109375)"/>
<path d="M0 0 C1.31 -0.01 1.31 -0.01 2.64 -0.01 C4.76 -0.01 6.88 0.05 9 0.12 C9 0.46 9 0.79 9 1.12 C8.42 1.05 7.84 0.98 7.25 0.91 C4.92 0.62 3.25 0.42 1 1.12 C-0.1 4.23 0.04 6.99 1 10.12 C3.5 10.79 3.5 10.79 6 10.12 C6 10.45 6 10.79 6 11.12 C3.71 11.38 1.42 11.6 -0.88 11.81 C-11.68 13.04 -20.39 18.52 -27.31 26.93 C-34.74 37.65 -42.19 49.97 -44 63.12 C-43.61 65.2 -43.61 65.2 -43 67.12 C-42.63 72.23 -43.06 74.94 -46 79.12 C-48.27 82.71 -48.2 85.75 -48.25 89.94 C-48.58 95.73 -49.41 99.01 -53.33 103.28 C-53.88 103.56 -54.43 103.84 -55 104.12 C-57.03 103.38 -58.47 102.66 -60 101.12 C-60.06 99.45 -60.06 97.78 -60.03 96.1 C-60.01 94.57 -60.01 94.57 -59.99 93.01 C-59.96 90.84 -59.92 88.68 -59.87 86.52 C-59.86 84.98 -59.86 84.98 -59.84 83.41 C-59.82 82.47 -59.81 81.53 -59.79 80.56 C-59.83 77.87 -59.83 77.87 -62 75.12 C-62.63 69.53 -62.63 69.53 -62 67.12 C-60.85 66.05 -60.85 66.05 -59.68 64.95 C-56.17 61.25 -55.21 57.68 -53.75 52.88 C-50.22 42.01 -45.23 32.35 -39.47 22.52 C-39.32 22.06 -39.16 21.6 -39 21.12 C-47.96 24.62 -57.39 32.4 -63 40.12 C-61.44 39.94 -61.44 39.94 -59 39.12 C-56.13 38.44 -54.97 38.38 -52 39.12 C-52.28 43.27 -53.82 46.62 -56 50.12 C-58.51 51.88 -61.05 52.41 -64 53.12 C-69.84 55.37 -75.22 58.29 -78 64.12 C-79.85 75.02 -76.62 83.56 -70.56 92.44 C-57.84 109.04 -41.68 120.8 -22.98 129.92 C-22.21 130.3 -21.45 130.68 -20.66 131.07 C-19.97 131.39 -19.29 131.72 -18.59 132.06 C-17 133.12 -17 133.12 -16 136.12 C-16.07 138.89 -16.51 141.38 -17 144.12 C-17.66 144.46 -18.32 144.78 -19 145.12 C-21.6 144.13 -24.05 143.07 -26.56 141.88 C-27.32 141.52 -28.07 141.16 -28.85 140.79 C-50.26 130.3 -70.99 114.79 -83.61 94.29 C-84.07 93.58 -84.53 92.86 -85 92.12 C-85.33 92.12 -85.66 92.12 -86 92.12 C-87.15 106.68 -83.85 119.84 -78.69 133.26 C-78.04 135.03 -77.48 136.83 -76.94 138.62 C-76.63 139.45 -76.32 140.28 -76 141.12 C-75.34 141.12 -74.68 141.12 -74 141.12 C-73.87 140.45 -73.75 139.78 -73.62 139.08 C-72.82 135.25 -71.05 132.17 -69.12 128.81 C-68.77 128.17 -68.42 127.52 -68.06 126.86 C-67.01 125.01 -67.01 125.01 -65 122.12 C-60.94 122.12 -59.06 123.44 -56.07 126.1 C-55 128.12 -55 128.12 -55.74 130.62 C-56.83 132.53 -57.97 134.4 -59.16 136.25 C-60.88 138.94 -62.13 141.48 -63.31 144.44 C-63.62 145.2 -63.92 145.96 -64.24 146.74 C-65.58 150.85 -65.58 150.85 -66 155.12 C-63.21 155.32 -63.21 155.32 -59.81 154.5 C-56.2 154.04 -56.2 154.04 -53 154.12 C-50.49 156.39 -49.66 158.85 -49 162.12 C-49 163.12 -49 164.1 -49 165.12 C-50.67 165.17 -52.33 165.17 -54 165.12 C-54 165.78 -54 166.44 -54 167.12 C-52.34 167.81 -50.67 168.47 -49 169.12 C-45.96 171.04 -43 173.04 -40.04 175.05 C-39.36 175.41 -38.69 175.76 -38 176.12 C-39.08 172.64 -41.69 169.58 -43.69 166.56 C-47.2 161.04 -49.72 155.32 -52 149.19 C-52.3 148.38 -52.61 147.58 -52.92 146.75 C-54.45 142.44 -55.55 138.76 -55 134.12 C-54.34 133.13 -53.68 132.15 -53 131.12 C-49.51 131.37 -46.75 133.06 -44 135.12 C-42.83 137.63 -41.95 139.89 -41.12 142.5 C-35.54 158.6 -27.3 173.54 -12 182.12 C-9.08 183.16 -6.25 183.94 -3.21 184.55 C-1 185.12 -1 185.12 1 187.12 C0.84 189.07 0.84 189.07 0.5 191.25 C0.67 192.53 0.83 193.81 1 195.12 C3.72 195.72 6.04 195.56 8.81 195.31 C9.53 195.25 10.26 195.19 11 195.12 C11 195.46 11 195.78 11 196.12 C-15.33 198.31 -39.82 192.6 -60.63 175.81 C-64.25 172.74 -67.64 169.47 -71 166.12 C-71.8 165.35 -72.6 164.57 -73.43 163.77 C-90.79 145.87 -98.56 119.89 -98.42 95.47 C-97.79 71.29 -87.96 49.12 -72 31.12 C-71.39 30.43 -70.77 29.73 -70.14 29.01 C-52.02 9.7 -26.15 -0.12 0 0 Z " fill="#9A161E" transform="translate(110,12.875)"/>
<path d="M0 0 C2.79 3.12 5.08 6.55 7.44 10 C24.47 33.37 51.56 49.94 78.89 58.59 C80.12 58.98 80.12 58.98 81.38 59.37 C82.96 59.86 84.55 60.33 86.15 60.78 C89.72 61.87 91.67 62.54 93.89 65.62 C94.44 66.8 94.44 66.8 95 68 C98.13 69.56 101.58 69.4 105 69 C105.99 68.34 106.98 67.68 108 67 C110.5 66.85 112.88 66.82 115.38 66.88 C116.11 66.88 116.83 66.89 117.58 66.9 C120.68 66.93 123.78 66.99 126.88 67.04 C129.15 67.08 131.42 67.1 133.69 67.12 C134.42 67.13 135.15 67.14 135.89 67.15 C140.14 67.14 144.05 66.75 148.2 65.82 C149.45 65.55 150.71 65.28 152 65 C146.49 74.18 134.68 82.64 125 87 C124.34 86.67 123.68 86.34 123 86 C124.2 84.29 125.42 82.59 126.69 80.93 C128.9 77.99 130.65 75.44 132 72 C127.84 69.94 123.33 70.73 119 72 C117.67 74.29 117.67 74.29 117 77 C110.96 85.33 102.29 92.81 92 95 C81.68 96.14 74.73 93.86 66.44 87.88 C54.52 78.05 45.11 62.58 42.83 47.22 C42.19 44.75 42.19 44.75 39.56 43.73 C38.72 43.49 37.87 43.25 37 43 C36.26 42.75 35.52 42.5 34.75 42.25 C34.17 42.17 33.59 42.09 33 42 C30.73 46.54 32.71 52.03 34.09 56.62 C37.88 67.71 43.53 77.29 50 87 C45.71 85.76 41.97 83.32 38.19 81 C37.59 80.64 36.99 80.29 36.38 79.92 C34.88 79.01 33.44 78.01 32 77 C32 76.34 32 75.68 32 75 C32.91 75.14 33.81 75.29 34.75 75.44 C35.86 75.22 35.86 75.22 37 75 C36.29 72.56 35.21 70.43 34.05 68.16 C33 66 33 66 33 64 C32.01 64.5 32.01 64.5 31 65 C27.23 65.59 23.73 65.92 20 65 C18.56 56.64 24.86 46.73 29.43 39.85 C29.62 39.24 29.81 38.63 30 38 C28.52 35.3 26.94 33.93 24.45 32.14 C23.64 32.1 22.83 32.05 22 32 C17.47 37.56 14.26 44.21 12 51 C11.34 51 10.68 51 10 51 C3.73 40.82 -0.72 26.01 -1 14 C-1.04 12.45 -1.04 12.45 -1.08 10.87 C-1.19 2.38 -1.19 2.38 0 0 Z M52.25 54.75 C51.51 55.49 50.77 56.24 50 57 C50.25 60.34 51.19 63.18 53 66 C54.73 67.16 54.73 67.16 57 67 C60.25 65.71 60.25 65.71 63.5 63.75 C64.62 63.13 65.75 62.5 66.91 61.86 C67.6 61.25 68.29 60.63 69 60 C65.05 55.38 57.97 53.61 52.25 54.75 Z " fill="#FCF8F8" transform="translate(24,103)"/>
<path d="M0 0 C1.22 2.36 1.94 4.23 2.62 6.75 C2.83 7.46 3.03 8.18 3.24 8.91 C10.33 35.01 12.35 67.73 2.1 93.23 C1 95 1 95 -1.96 96.17 C-7.93 97.18 -7.93 97.18 -11 96 C-11.01 91.23 -9.21 86.89 -7.73 82.39 C-0.79 59.65 -2.44 33.41 -9.41 10.99 C-11.36 4.58 -11.36 4.58 -10 1 C-6.43 -1.08 -3.87 -1.5 0 0 Z " fill="#E11B24" transform="translate(163,61)"/>
<path d="M0 0 C0.66 0 1.32 0 2 0 C3.64 5.38 3.94 10.66 2 16 C-3.07 23.4 -10.23 29.21 -17 35 C-17.58 35.51 -18.17 36.02 -18.77 36.55 C-20.93 38.44 -23.12 40.25 -25.4 41.99 C-27.42 43.55 -29.28 45.14 -31.16 46.86 C-39.23 53.98 -39.23 53.98 -44.2 54.03 C-48.19 52.99 -51.07 51.93 -54 49 C-52.8 47.68 -52.8 47.68 -50.75 46.16 C-49.63 45.32 -49.63 45.32 -48.49 44.46 C-47.26 43.55 -47.26 43.55 -46 42.62 C-44.31 41.34 -42.63 40.06 -40.94 38.78 C-40.1 38.14 -39.26 37.5 -38.39 36.84 C-25.34 26.81 -12.43 15.34 -2.13 2.49 C-1.08 1.26 -1.08 1.26 0 0 Z " fill="#CC1921" transform="translate(154,96)"/>
<path d="M0 0 C1.78 0.17 3.55 0.41 5.31 0.69 C6.58 0.86 7.85 1.03 9.15 1.21 C16.61 2.32 23.91 3.92 31.12 6.12 C31.81 6.32 32.49 6.51 33.19 6.71 C35.02 7.31 35.02 7.31 37.31 8.69 C35.87 10.7 35.87 10.7 33.31 12.69 C32.43 13.45 31.54 14.21 30.62 15 C23.54 18.61 15.23 15.04 7.84 13.38 C3.66 12.56 -0.43 12.24 -4.68 12.09 C-5.34 11.96 -6 11.83 -6.69 11.69 C-7.81 8.31 -7.66 7.65 -6.31 4.5 C-4.39 1.01 -4.16 0.78 0 0 Z " fill="#B41921" transform="translate(81.6875,51.3125)"/>
<path d="M0 0 C1.45 0.59 1.45 0.59 2.94 1.19 C3.61 1.45 4.28 1.7 4.98 1.97 C8.7 3.76 10.53 5.19 12.11 9.08 C13.15 13.16 13.94 16.97 13.94 21.19 C12.2 20.52 12.2 20.52 9.94 19.19 C9.26 18.83 8.59 18.46 7.89 18.09 C5.57 16.81 3.26 15.53 0.94 14.25 C0.13 13.81 -0.68 13.36 -1.51 12.91 C-2.29 12.48 -3.07 12.04 -3.88 11.6 C-4.94 11.01 -4.94 11.01 -6.02 10.41 C-8.17 9.12 -10.17 7.85 -12.06 6.19 C-9.08 2.6 -4.61 0.28 0 0 Z " fill="#D41921" transform="translate(141.0625,69.8125)"/>
<path d="M0 0 C0.46 0.53 0.91 1.07 1.38 1.62 C-0.71 3.48 -0.71 3.48 -4.12 5.37 C-5.22 6 -6.32 6.64 -7.46 7.29 C-10.62 8.62 -10.62 8.62 -12.89 8.59 C-15.99 6.84 -16.5 4.06 -17.45 0.8 C-17.51 0.08 -17.56 -0.64 -17.62 -1.38 C-12.19 -6.81 -5.77 -3.05 0 0 Z " fill="#AC171E" transform="translate(91.6171875,161.3828125)"/>
</svg>
