<svg xmlns="http://www.w3.org/2000/svg" width="60" height="60" viewBox="0 0 60 60">
    <defs>
        <linearGradient id="gradient" x1="0%" y1="0%" x2="100%" y2="0%">
            <stop offset="0%" style="stop-color:#2563eb;stop-opacity:1" />
            <stop offset="100%" style="stop-color:#7c3aed;stop-opacity:1" />
        </linearGradient>
    </defs>
    
    <!-- Main circle -->
    <circle cx="30" cy="30" r="28" fill="white" stroke="url(#gradient)" stroke-width="2"/>
    
    <!-- Raw data source -->
    <rect x="13" y="20" width="12" height="20" fill="none" stroke="url(#gradient)" stroke-width="2" rx="2"/>
    
    <!-- Raw data elements centered within container -->
    <circle cx="16" cy="25" r="1.5" fill="url(#gradient)" fill-opacity="0.3"/>
    <circle cx="19" cy="25" r="1.5" fill="url(#gradient)" fill-opacity="0.4"/>
    <circle cx="22" cy="25" r="1.5" fill="url(#gradient)" fill-opacity="0.3"/>
    <circle cx="16" cy="30" r="1.5" fill="url(#gradient)" fill-opacity="0.4"/>
    <circle cx="19" cy="30" r="1.5" fill="url(#gradient)" fill-opacity="0.5"/>
    <circle cx="22" cy="30" r="1.5" fill="url(#gradient)" fill-opacity="0.3"/>
    <circle cx="16" cy="35" r="1.5" fill="url(#gradient)" fill-opacity="0.3"/>
    <circle cx="19" cy="35" r="1.5" fill="url(#gradient)" fill-opacity="0.4"/>
    <circle cx="22" cy="35" r="1.5" fill="url(#gradient)" fill-opacity="0.5"/>
    
    <!-- Processing pipeline -->
    <rect x="27" y="20" width="6" height="20" fill="url(#gradient)" fill-opacity="0.2" rx="2"/>
    
    <!-- Processing nodes centered within pipeline -->
    <circle cx="30" cy="25" r="2" fill="url(#gradient)" fill-opacity="0.6"/>
    <circle cx="30" cy="30" r="2" fill="url(#gradient)" fill-opacity="0.8"/>
    <circle cx="30" cy="35" r="2" fill="url(#gradient)" fill-opacity="1"/>
    
    <!-- Structured output -->
    <rect x="35" y="20" width="12" height="20" fill="none" stroke="url(#gradient)" stroke-width="2" rx="2"/>
    
    <!-- Structured data rows centered within container -->
    <rect x="37" y="24" width="8" height="3" fill="url(#gradient)" fill-opacity="0.7" rx="1"/>
    <rect x="37" y="29" width="8" height="3" fill="url(#gradient)" fill-opacity="0.8" rx="1"/>
    <rect x="37" y="34" width="8" height="3" fill="url(#gradient)" fill-opacity="0.9" rx="1"/>
    <rect x="37" y="39" width="8" height="3" fill="url(#gradient)" fill-opacity="1" rx="1"/>
    
    <!-- Clean data flow arrows -->
    <path d="M25,30 L27,30" stroke="url(#gradient)" stroke-width="2"/>
    <path d="M33,30 L35,30" stroke="url(#gradient)" stroke-width="2"/>
    
    <!-- Quality indicator centered -->
    <circle cx="30" cy="30" r="2.5" fill="url(#gradient)" fill-opacity="0.6"/>
</svg>
