<svg xmlns="http://www.w3.org/2000/svg" width="60" height="60" viewBox="0 0 60 60">
    <defs>
        <linearGradient id="gradient" x1="0%" y1="0%" x2="100%" y2="0%">
            <stop offset="0%" style="stop-color:#2563eb;stop-opacity:1" />
            <stop offset="100%" style="stop-color:#7c3aed;stop-opacity:1" />
        </linearGradient>
    </defs>
    
    <!-- Main circle -->
    <circle cx="30" cy="30" r="28" fill="white" stroke="url(#gradient)" stroke-width="2"/>
    
    <!-- Lightbulb -->
    <path d="M30,15 C23.4,15 18,20.4 18,27 C18,31.2 20.3,35 24,37 L24,43 C24,44.1 24.9,45 26,45 L34,45 C35.1,45 36,44.1 36,43 L36,37 C39.7,35 42,31.2 42,27 C42,20.4 36.6,15 30,15 Z" fill="none" stroke="url(#gradient)" stroke-width="2"/>
    
    <!-- Filament -->
    <path d="M27,37 L27,41 L33,41 L33,37" fill="none" stroke="url(#gradient)" stroke-width="2"/>
    
    <!-- Base -->
    <path d="M26,45 L34,45 L34,49 C34,50.1 33.1,51 32,51 L28,51 C26.9,51 26,50.1 26,49 L26,45 Z" fill="url(#gradient)"/>
</svg> 