<svg xmlns="http://www.w3.org/2000/svg" width="60" height="60" viewBox="0 0 60 60">
    <defs>
        <linearGradient id="gradient" x1="0%" y1="0%" x2="100%" y2="0%">
            <stop offset="0%" style="stop-color:#2563eb;stop-opacity:1" />
            <stop offset="100%" style="stop-color:#7c3aed;stop-opacity:1" />
        </linearGradient>
    </defs>
    
    <!-- Main circle -->
    <circle cx="30" cy="30" r="28" fill="white" stroke="url(#gradient)" stroke-width="2"/>
    
    <!-- System modules -->
    <rect x="15" y="20" width="12" height="20" fill="none" stroke="url(#gradient)" stroke-width="2" rx="2"/>
    <rect x="33" y="20" width="12" height="20" fill="none" stroke="url(#gradient)" stroke-width="2" rx="2"/>
    
    <!-- Module details -->
    <rect x="17" y="25" width="8" height="3" fill="url(#gradient)" fill-opacity="0.3"/>
    <rect x="17" y="30" width="8" height="3" fill="url(#gradient)" fill-opacity="0.3"/>
    <rect x="17" y="35" width="8" height="3" fill="url(#gradient)" fill-opacity="0.3"/>
    
    <rect x="35" y="25" width="8" height="3" fill="url(#gradient)" fill-opacity="0.3"/>
    <rect x="35" y="30" width="8" height="3" fill="url(#gradient)" fill-opacity="0.3"/>
    <rect x="35" y="35" width="8" height="3" fill="url(#gradient)" fill-opacity="0.3"/>
    
    <!-- Integration bridge -->
    <rect x="27" y="28" width="6" height="4" fill="url(#gradient)" rx="1"/>
    
    <!-- Connection lines -->
    <path d="M27,28 L27,30" stroke="url(#gradient)" stroke-width="2"/>
    <path d="M33,28 L33,30" stroke="url(#gradient)" stroke-width="2"/>
    
    <!-- Data flow indicators -->
    <circle cx="30" cy="32" r="1" fill="url(#gradient)"/>
    <circle cx="30" cy="34" r="1" fill="url(#gradient)"/>
</svg> 