<svg xmlns="http://www.w3.org/2000/svg" width="60" height="60" viewBox="0 0 60 60">
    <defs>
        <linearGradient id="gradient" x1="0%" y1="0%" x2="100%" y2="0%">
            <stop offset="0%" style="stop-color:#2563eb;stop-opacity:1" />
            <stop offset="100%" style="stop-color:#7c3aed;stop-opacity:1" />
        </linearGradient>
    </defs>
    
    <!-- Main circle -->
    <circle cx="30" cy="30" r="28" fill="white" stroke="url(#gradient)" stroke-width="2"/>
    
    <!-- Team members -->
    <circle cx="20" cy="22" r="4" fill="none" stroke="url(#gradient)" stroke-width="2"/>
    <circle cx="30" cy="22" r="4" fill="none" stroke="url(#gradient)" stroke-width="2"/>
    <circle cx="40" cy="22" r="4" fill="none" stroke="url(#gradient)" stroke-width="2"/>
    
    <!-- Connection lines -->
    <path d="M24,22 L26,22" stroke="url(#gradient)" stroke-width="2"/>
    <path d="M34,22 L36,22" stroke="url(#gradient)" stroke-width="2"/>
    
    <!-- Learning progression bars -->
    <rect x="16" y="32" width="8" height="3" fill="url(#gradient)" fill-opacity="0.4" rx="1"/>
    <rect x="16" y="37" width="8" height="3" fill="url(#gradient)" fill-opacity="0.5" rx="1"/>
    <rect x="16" y="42" width="8" height="3" fill="url(#gradient)" fill-opacity="0.6" rx="1"/>
    
    <rect x="26" y="32" width="8" height="3" fill="url(#gradient)" fill-opacity="0.6" rx="1"/>
    <rect x="26" y="37" width="8" height="3" fill="url(#gradient)" fill-opacity="0.7" rx="1"/>
    <rect x="26" y="42" width="8" height="3" fill="url(#gradient)" fill-opacity="0.8" rx="1"/>
    
    <rect x="36" y="32" width="8" height="3" fill="url(#gradient)" fill-opacity="0.8" rx="1"/>
    <rect x="36" y="37" width="8" height="3" fill="url(#gradient)" fill-opacity="0.9" rx="1"/>
    <rect x="36" y="42" width="8" height="3" fill="url(#gradient)" rx="1"/>
    
    <!-- Growth indicators -->
    <circle cx="20" cy="28" r="1" fill="url(#gradient)" fill-opacity="0.4"/>
    <circle cx="30" cy="28" r="1" fill="url(#gradient)" fill-opacity="0.7"/>
    <circle cx="40" cy="28" r="1" fill="url(#gradient)"/>
</svg> 