<svg xmlns="http://www.w3.org/2000/svg" width="60" height="60" viewBox="0 0 60 60">
    <defs>
        <linearGradient id="gradient" x1="0%" y1="0%" x2="100%" y2="0%">
            <stop offset="0%" style="stop-color:#2563eb;stop-opacity:1" />
            <stop offset="100%" style="stop-color:#7c3aed;stop-opacity:1" />
        </linearGradient>
    </defs>
    
    <!-- Main circle -->
    <circle cx="30" cy="30" r="28" fill="white" stroke="url(#gradient)" stroke-width="2"/>
    
    <!-- Documents -->
    <path d="M15,15 L35,15 L35,35 L15,35 Z" fill="none" stroke="url(#gradient)" stroke-width="2"/>
    <path d="M20,20 L30,20" stroke="url(#gradient)" stroke-width="2"/>
    <path d="M20,25 L30,25" stroke="url(#gradient)" stroke-width="2"/>
    <path d="M20,30 L30,30" stroke="url(#gradient)" stroke-width="2"/>
    
    <!-- Classification folders -->
    <path d="M25,35 L45,35 L45,45 L25,45 Z" fill="url(#gradient)"/>
    <path d="M25,25 L45,25 L45,35 L25,35 Z" fill="url(#gradient)" fill-opacity="0.6"/>
    <path d="M25,15 L45,15 L45,25 L25,25 Z" fill="url(#gradient)" fill-opacity="0.3"/>
    
    <!-- AI processing indicator -->
    <circle cx="40" cy="20" r="2" fill="white"/>
    <circle cx="40" cy="30" r="2" fill="white"/>
    <circle cx="40" cy="40" r="2" fill="white"/>
</svg>
