<svg xmlns="http://www.w3.org/2000/svg" width="60" height="60" viewBox="0 0 60 60">
    <defs>
        <linearGradient id="gradient" x1="0%" y1="0%" x2="100%" y2="0%">
            <stop offset="0%" style="stop-color:#2563eb;stop-opacity:1" />
            <stop offset="100%" style="stop-color:#7c3aed;stop-opacity:1" />
        </linearGradient>
    </defs>
    
    <!-- Main circle -->
    <circle cx="30" cy="30" r="28" fill="white" stroke="url(#gradient)" stroke-width="2"/>
    
    <!-- Knowledge base -->
    <rect x="18" y="18" width="16" height="24" fill="none" stroke="url(#gradient)" stroke-width="2" rx="2"/>
    
    <!-- Data layers -->
    <rect x="20" y="22" width="12" height="3" fill="url(#gradient)" fill-opacity="0.3"/>
    <rect x="20" y="27" width="12" height="3" fill="url(#gradient)" fill-opacity="0.3"/>
    <rect x="20" y="32" width="12" height="3" fill="url(#gradient)" fill-opacity="0.3"/>
    <rect x="20" y="37" width="12" height="3" fill="url(#gradient)" fill-opacity="0.3"/>
    
    <!-- AI processing -->
    <circle cx="40" cy="30" r="8" fill="none" stroke="url(#gradient)" stroke-width="2"/>
    
    <!-- Neural connections -->
    <path d="M34,26 L37,26" stroke="url(#gradient)" stroke-width="2"/>
    <path d="M34,30 L37,30" stroke="url(#gradient)" stroke-width="2"/>
    <path d="M34,34 L37,34" stroke="url(#gradient)" stroke-width="2"/>
    
    <!-- AI nodes -->
    <circle cx="40" cy="26" r="1.5" fill="url(#gradient)"/>
    <circle cx="40" cy="30" r="1.5" fill="url(#gradient)"/>
    <circle cx="40" cy="34" r="1.5" fill="url(#gradient)"/>
    
    <!-- Output -->
    <path d="M45,30 L48,30" stroke="url(#gradient)" stroke-width="2"/>
    <path d="M46,28 L48,30 L46,32" fill="none" stroke="url(#gradient)" stroke-width="2"/>
</svg> 