<svg xmlns="http://www.w3.org/2000/svg" width="60" height="60" viewBox="0 0 60 60">
    <defs>
        <linearGradient id="gradient" x1="0%" y1="0%" x2="100%" y2="0%">
            <stop offset="0%" style="stop-color:#2563eb;stop-opacity:1" />
            <stop offset="100%" style="stop-color:#7c3aed;stop-opacity:1" />
        </linearGradient>
    </defs>
    
    <!-- Main circle -->
    <circle cx="30" cy="30" r="28" fill="white" stroke="url(#gradient)" stroke-width="2"/>
    
    <!-- Database symbol (for retrieval) -->
    <g transform="translate(15, 15)">
        <path d="M0,5 C0,2.2 6.7,0 15,0 C23.3,0 30,2.2 30,5 L30,25 C30,27.8 23.3,30 15,30 C6.7,30 0,27.8 0,25 L0,5 Z" fill="none" stroke="url(#gradient)" stroke-width="2"/>
        <path d="M0,5 C0,7.8 6.7,10 15,10 C23.3,10 30,7.8 30,5" fill="none" stroke="url(#gradient)" stroke-width="2"/>
        <path d="M0,15 C0,17.8 6.7,20 15,20 C23.3,20 30,17.8 30,15" fill="none" stroke="url(#gradient)" stroke-width="2"/>
    </g>
    
    <!-- Brain/AI symbol (for generation) -->
    <g transform="translate(20, 10)">
        <path d="M10,10 C8,12 12,12 10,14 C8,16 12,16 10,18 C8,20 12,20 10,22 C8,24 12,24 10,26 C8,28 12,28 10,30" fill="none" stroke="url(#gradient)" stroke-width="2" stroke-linecap="round"/>
        <circle cx="10" cy="5" r="3" fill="url(#gradient)"/>
    </g>
</svg> 