<svg xmlns="http://www.w3.org/2000/svg" width="60" height="60" viewBox="0 0 60 60">
    <defs>
        <linearGradient id="gradient" x1="0%" y1="0%" x2="100%" y2="0%">
            <stop offset="0%" style="stop-color:#2563eb;stop-opacity:1" />
            <stop offset="100%" style="stop-color:#7c3aed;stop-opacity:1" />
        </linearGradient>
    </defs>
    
    <!-- Main circle -->
    <circle cx="30" cy="30" r="28" fill="white" stroke="url(#gradient)" stroke-width="2"/>
    
    <!-- Puzzle pieces representing integration -->
    <g transform="translate(15, 15)">
        <!-- Top left piece -->
        <path d="M0,0 L12,0 L12,4 C14,4 14,8 12,8 L12,12 L8,12 C8,14 4,14 4,12 L0,12 Z" fill="none" stroke="url(#gradient)" stroke-width="2"/>
        
        <!-- Top right piece -->
        <path d="M18,0 L30,0 L30,12 L26,12 C26,14 22,14 22,12 L18,12 L18,8 C16,8 16,4 18,4 Z" fill="none" stroke="url(#gradient)" stroke-width="2"/>
        
        <!-- Bottom left piece -->
        <path d="M0,18 L4,18 C4,16 8,16 8,18 L12,18 L12,22 C14,22 14,26 12,26 L12,30 L0,30 Z" fill="none" stroke="url(#gradient)" stroke-width="2"/>
        
        <!-- Bottom right piece -->
        <path d="M18,18 L22,18 C22,16 26,16 26,18 L30,18 L30,30 L18,30 L18,26 C16,26 16,22 18,22 Z" fill="none" stroke="url(#gradient)" stroke-width="2"/>
        
        <!-- Central connecting node -->
        <circle cx="15" cy="15" r="3" fill="url(#gradient)"/>
    </g>
</svg> 